<svg width="50" height="50" viewBox="0 0 50 50" fill="none" xmlns="http://www.w3.org/2000/svg">
<rect width="50" height="50" rx="10" fill="#107AD4"/>
<path d="M22.7148 37.4049C22.9902 37.0509 23.248 36.7036 23.2832 36.6355C23.3477 36.5333 22.7617 35.907 18.2617 31.291L13.1699 26.0553L26.582 26.0349L40 26.0213V25V23.9787L26.582 23.9651L13.1699 23.9447L18.2617 18.7091C22.7617 14.093 23.3477 13.4666 23.2832 13.3645C23.248 13.2964 22.9902 12.9492 22.7148 12.5951C22.2344 11.962 22.2168 11.9415 22.0996 12.0505C22.0293 12.1186 19.2813 14.9372 15.9883 18.321L10 24.4758V25V25.5243L15.9883 31.679C19.2813 35.0628 22.0293 37.8814 22.0996 37.9496C22.2168 38.0585 22.2344 38.0381 22.7148 37.4049Z" fill="#ECF5FD"/>
</svg>
