<svg width="43" height="43" viewBox="0 0 43 43" fill="none" xmlns="http://www.w3.org/2000/svg">
<rect width="43" height="43" rx="10" fill="#494B5E" fill-opacity="0.4"/>
<path d="M19.384 25.812C19.384 25.0653 19.5053 24.412 19.748 23.852C20.0093 23.2733 20.3173 22.788 20.672 22.396C21.0453 22.004 21.5307 21.5373 22.128 20.996C22.8747 20.3427 23.4253 19.7827 23.78 19.316C24.1347 18.8307 24.312 18.252 24.312 17.58C24.312 16.6653 23.9573 15.9373 23.248 15.396C22.5387 14.836 21.5587 14.556 20.308 14.556C18.124 14.556 16.4533 15.2933 15.296 16.768L13.252 15.312C14.036 14.304 15.0347 13.5293 16.248 12.988C17.48 12.4467 18.8987 12.176 20.504 12.176C22.5387 12.176 24.1533 12.624 25.348 13.52C26.5427 14.3973 27.14 15.6107 27.14 17.16C27.14 17.9253 27.0093 18.6067 26.748 19.204C26.5053 19.7827 26.2067 20.268 25.852 20.66C25.4973 21.052 25.0213 21.5187 24.424 22.06C23.6587 22.7507 23.0893 23.3573 22.716 23.88C22.3613 24.4027 22.184 25.0467 22.184 25.812H19.384ZM20.812 32.168C20.2893 32.168 19.8507 32 19.496 31.664C19.16 31.3093 18.992 30.88 18.992 30.376C18.992 29.872 19.16 29.452 19.496 29.116C19.8507 28.7613 20.2893 28.584 20.812 28.584C21.3347 28.584 21.764 28.7613 22.1 29.116C22.436 29.452 22.604 29.872 22.604 30.376C22.604 30.88 22.4267 31.3093 22.072 31.664C21.736 32 21.316 32.168 20.812 32.168Z" fill="white"/>
</svg>
