<svg width="65" height="65" viewBox="0 0 65 65" fill="none" xmlns="http://www.w3.org/2000/svg">
<rect x="0.5" y="0.5" width="64" height="64" rx="32" stroke="#ECF5FD"/>
<path d="M22.5036 30.7148C22.8032 30.9902 23.097 31.248 23.1546 31.2832C23.241 31.3477 23.771 30.7617 27.6769 26.2617L32.1071 21.1699L32.1243 34.582L32.1359 48H33H33.8641L33.8757 34.582L33.8929 21.1699L38.3231 26.2617C42.229 30.7617 42.759 31.3477 42.8454 31.2832C42.903 31.248 43.1968 30.9902 43.4964 30.7148C44.0322 30.2344 44.0495 30.2168 43.9573 30.0996C43.8997 30.0293 41.5147 27.2812 38.6515 23.9883L33.4436 18H33H32.5564L27.3485 23.9883C24.4853 27.2812 22.1003 30.0293 22.0427 30.0996C21.9505 30.2168 21.9678 30.2344 22.5036 30.7148Z" fill="#ECF5FD"/>
</svg>
